PathFileType	4	(X/Y/Z)	Run_300 01
DataRate	CameraRate	NumFrames	NumMarkers	Units	OrigDataRate	OrigDataStartFrame	OrigNumFrames
120	120	4	42	mm	120	4	128
Frame#	Time	LASI			LPSI			RPSI			RTH1			RTH2			RTH3			LTH1			LTH2			LTH3			RTB1			RTB2			RTB3			LTB1			LTB2			RCAL			RTOE			RMT5			LCAL			LMT5			LACR			RACR			CLAV			C7			RUA1			RUA2			RUA3			RLEL			RMEL			LUA1			LUA2			LUA3			LLEL			LMEL			RFAsuperior			RFAradius			RFAulna			LFAsuperior			LFAradius			LFAulna			LTB3			LTOE			RASI			
		X1	Y1	Z1	X2	Y2	Z2	X3	Y3	Z3	X4	Y4	Z4	X5	Y5	Z5	X6	Y6	Z6	X7	Y7	Z7	X8	Y8	Z8	X9	Y9	Z9	X10	Y10	Z10	X11	Y11	Z11	X12	Y12	Z12	X13	Y13	Z13	X14	Y14	Z14	X15	Y15	Z15	X16	Y16	Z16	X17	Y17	Z17	X18	Y18	Z18	X19	Y19	Z19	X20	Y20	Z20	X21	Y21	Z21	X22	Y22	Z22	X23	Y23	Z23	X24	Y24	Z24	X25	Y25	Z25	X26	Y26	Z26	X27	Y27	Z27	X28	Y28	Z28	X29	Y29	Z29	X30	Y30	Z30	X31	Y31	Z31	X32	Y32	Z32	X33	Y33	Z33	X34	Y34	Z34	X35	Y35	Z35	X36	Y36	Z36	X37	Y37	Z37	X38	Y38	Z38	X39	Y39	Z39	X40	Y40	Z40	X41	Y41	Z41	X42	Y42	Z42	

1	0.166667	758.803865	1037.698102	-508.356316	590.744411	1070.325354	-435.124066	587.566861	1069.448592	-346.203793	752.44877	859.435264	-218.209344	844.357799	763.085998	-256.546865	811.228505	623.6308309999999	-260.711718	698.545934	884.231763	-555.263765	724.301922	761.774005	-540.188507	623.868802	643.048506	-539.51138	917.219502	439.170078	-321.089109	882.89752	367.192042	-271.568665	921.414614	261.030071	-344.27706	509.463083	436.661962	-469.322958	394.355516	433.84014	-517.843856	835.3449450000001	101.718332	-365.738286	1051.060206	146.220395	-358.316564	1021.834671	107.236714	-271.668586	183.739197	446.753317	-452.583721	175.994435	241.466703	-497.025467	777.3922260000001	1489.141995	-562.862119	676.1977439999999	1493.34048	-208.328865	805.488777	1456.380354	-331.728878	689.829374	1540.847386	-396.804337	611.69745	1422.170827	-141.491336	607.4597240000001	1352.246082	-126.434008	502.886723	1371.99743	-127.895528	490.691973	1294.93559	-72.298365	458.937187	1269.560573	-153.147483	757.018415	1433.632844	-631.851064	683.550215	1390.62678	-653.416395	742.499901	1354.704015	-689.002473	713.558437	1258.830779	-748.919496	634.990124	1225.818281	-707.153701	564.801122	1259.069012	-64.149292	715.307026	1188.873038	-95.624115	672.389093	1136.106048	-93.711364	771.163104	1256.604242	-704.026085	832.889934	1255.860616	-539.412746	842.240111	1194.683031	-558.2756910000001	325.44766	384.035973	-446.896373	225.577002	237.629475	-416.366758	740.7395330000001	1049.700663	-272.447105	
2	0.175	759.524707	1033.043326	-508.040195	590.611294	1063.462307	-435.66573	586.81719	1062.393433	-346.815366	751.5636479999999	854.775723	-218.812704	845.1901800000001	760.342761	-257.433041	810.4920059999999	619.215797	-262.298804	702.32295	878.591491	-554.493873	729.745641	756.902577	-540.694983	632.6709	636.521279	-540.4811999999999	913.6685660000001	433.269908	-323.874489	878.993264	361.543553	-273.946809	916.300025	255.023993	-346.761297	516.966697	434.908576	-470.107612	401.679143	438.818432	-517.832557	828.369771	97.386673	-366.772928	1044.588384	137.911893	-364.606879	1016.544102	100.00599	-277.067389	192.860525	464.242422	-450.673746	174.338284	260.779614	-499.381942	776.930078	1483.948137	-561.963582	677.239794	1486.890974	-206.497693	806.040264	1450.434298	-331.048661	690.24863	1535.762996	-394.665565	613.456016	1415.083784	-139.085263	609.90552	1345.481599	-123.566625	505.145769	1364.093498	-124.424234	494.065962	1287.56216	-68.327979	461.950316	1260.840232	-148.653467	755.357907	1429.044557	-631.063801	681.0194770000001	1387.004963	-651.877845	739.255523	1351.111213	-688.70286	708.450304	1255.943155	-749.070685	629.404352	1224.184753	-707.008865	568.746523	1253.045382	-60.277832	720.209917	1185.186024	-92.204217	678.200291	1131.81307	-89.419055	766.483642	1251.663601	-704.832043	828.811834	1248.438934	-540.305773	836.866399	1187.227132	-559.9633679999999	330.328166	393.179139	-447.009004	223.481838	252.457181	-418.884333	739.6794609999999	1044.539101	-272.033258	
3	0.183333	759.922202	1027.6323	-507.649307	590.295959	1055.785066	-436.507196	585.8463850000001	1054.81305	-347.800576	751.222994	849.980591	-220.752181	846.741977	757.297099	-258.43289	809.7402059999999	614.148678	-263.716657	705.7739	872.168453	-553.669742	735.3225619999999	751.38411	-540.811907	642.024529	629.291154	-541.6320490000001	909.583931	426.214816	-326.553109	874.210605	354.933917	-276.441221	909.761378	247.941612	-349.322447	525.5112810000001	432.69642	-470.881653	410.292202	443.124954	-517.951291	818.081581	95.015297	-368.273045	1034.917678	125.427423	-371.821708	1007.556384	90.475335	-283.283276	204.068146	480.447097	-448.36644	175.290532	279.595188	-502.288421	776.0456380000001	1478.117865	-561.104074	678.176739	1479.63701	-204.623795	806.483067	1443.798467	-330.526103	690.6388449999999	1530.046683	-392.394465	615.350686	1407.012452	-136.578869	612.623056	1337.728701	-120.596428	507.634031	1355.003819	-120.651021	497.890435	1279.027957	-64.020645	465.386142	1250.958668	-143.822344	753.163219	1423.705746	-630.083086	678.006171	1382.663567	-650.043331	735.576997	1346.788913	-688.157122	702.799896	1252.428407	-748.868346	623.543365	1221.877234	-706.416281	573.195999	1245.907465	-56.107267	725.5769790000001	1180.628862	-88.84321799999999	684.617627	1126.576907	-85.068901	761.44136	1246.298016	-705.724591	824.861055	1239.89253	-541.205783	831.698623	1178.85589	-561.974568	336.949845	401.620543	-447.065076	223.786433	266.505464	-422.064684	738.580585	1038.973849	-271.064893	
4	0.191667	760.021155	1021.491865	-507.270511	589.872966	1047.368635	-437.649352	584.555459	1046.722649	-349.140868	751.397766	844.6681599999999	-223.693041	847.610769	752.4276159999999	-259.555795	808.541497	608.0594	-265.045925	708.784351	865.109828	-553.06138	741.243603	745.211475	-540.562427	651.982389	621.418137	-542.925247	905.222539	418.099985	-329.476269	869.054728	347.356029	-279.425142	901.7070210000001	239.843371	-352.549092	534.9984040000001	430.061388	-471.576381	420.08848	446.792553	-518.155497	804.2336780000001	94.736273	-370.500671	1021.739012	109.646474	-379.27015	994.411649	80.09833999999999	-289.488016	216.859789	495.163784	-445.907409	179.122458	297.472875	-505.566941	774.771208	1471.699551	-560.260253	678.988893	1471.602735	-202.779589	806.823277	1436.496754	-330.168691	690.990499	1523.632085	-390.165658	617.389725	1398.041537	-134.031058	615.63411	1329.045591	-117.620474	510.379344	1344.842089	-116.662437	502.165452	1269.428908	-59.426593	469.362988	1239.994811	-138.736003	750.479801	1417.730397	-628.913498	674.525726	1377.696117	-647.904174	731.475805	1341.780061	-687.349934	696.621291	1248.381817	-748.315071	617.491611	1218.950984	-705.351116	578.172486	1237.760305	-51.727464	731.370715	1175.264252	-85.657685	691.590337	1120.486522	-80.74625399999999	755.966983	1240.534484	-706.564932	821.031479	1230.360782	-542.297402	826.669367	1169.563072	-564.432258	345.187358	409.277068	-447.108909	226.487128	279.652164	-425.725545	737.575953	1032.996311	-269.509095	
